<svg width="282" height="282" viewBox="0 0 282 282" fill="none" xmlns="http://www.w3.org/2000/svg">
<path fill-rule="evenodd" clip-rule="evenodd" d="M282 141C282 218.872 218.872 282 141 282C63.1278 282 0 218.872 0 141C0 63.1278 63.1278 0 141 0C218.872 0 282 63.1278 282 141ZM47.0562 148.088C43.1509 144.183 43.1509 137.851 47.0562 133.946L61.2947 119.707C65.1999 115.802 71.5316 115.802 75.4368 119.707L121.212 165.483L205.733 80.9618C209.639 77.0565 215.97 77.0565 219.876 80.9618L234.114 95.2002C238.019 99.1055 238.019 105.437 234.114 109.342L142.522 200.934L128.284 215.173C126.819 216.637 125.013 217.553 123.122 217.919C120.842 218.36 118.438 218.003 116.359 216.848C115.564 216.406 114.816 215.848 114.141 215.173M47.0562 148.088L99.903 200.934L47.0562 148.088Z" fill="white"/>
</svg>
