<svg width="332" height="299" viewBox="0 0 332 299" fill="none" xmlns="http://www.w3.org/2000/svg">
<g clip-path="url(#clip0_31_59)">
<path d="M208.229 0C209.178 0.52785 210.257 0.366811 211.268 0.545743C221.564 2.39769 229.559 7.55093 234.873 16.6765C237.183 20.6488 238.642 24.9073 239.256 29.4388C239.6 31.9975 239.712 34.5876 239.936 37.1642C240.205 40.2329 240.496 43.3016 240.746 46.3747C241.028 49.7834 240.684 53.1518 239.775 56.4262C236.95 66.5672 230.817 74.0824 221.439 78.8777C218.001 80.6357 214.321 81.6736 210.44 81.9688C205.825 82.3177 201.219 82.7248 196.612 83.1542C192.995 83.4897 189.383 83.8521 185.752 84.0712C185.26 84.1026 184.772 84.2278 184.28 84.3128C183.286 84.3352 182.288 84.3039 181.294 84.3844C177.972 84.6483 174.651 84.9033 171.338 85.2656C170.022 85.4088 168.657 85.2746 167.39 85.8114C165.339 85.6593 163.321 86.1155 161.284 86.1916C159.645 86.2542 158.02 86.5226 156.386 86.6658C151.829 87.0684 147.268 87.4665 142.706 87.8422C139.779 88.0838 136.851 88.2717 133.923 88.5222C129.908 88.8711 125.901 89.2737 121.886 89.6181C119.16 89.8507 116.42 90.2265 113.694 90.1639C107.011 90.0163 100.873 88.0167 95.3626 84.1831C88.5763 79.4637 83.8759 73.2324 81.5526 65.2655C80.908 63.0557 80.6394 60.7922 80.4469 58.5108C80.1917 55.5405 79.8963 52.5747 79.6456 49.6C79.3233 45.829 78.9383 42.049 79.3009 38.2691C79.6546 34.5742 80.7065 31.0402 82.3405 27.7121C85.8769 20.5056 91.1905 14.999 98.3932 11.3935C101.755 9.71154 105.309 8.61558 109.092 8.32034C112.512 8.05642 115.932 7.73881 119.352 7.43463C124.505 6.97388 129.653 6.48629 134.81 6.03448C137.684 5.78398 140.566 5.60057 143.44 5.35454C146.314 5.10851 149.184 4.81327 152.058 4.55829C154.685 4.32568 157.313 4.12886 159.941 3.90072C163.115 3.62785 166.284 3.33708 169.453 3.06421C172.081 2.83607 174.709 2.63478 177.337 2.40664C180.609 2.12482 183.877 1.82511 187.149 1.55224C189.974 1.31515 192.803 1.10938 195.632 0.881241C198.161 0.675469 200.69 0.46075 203.215 0.237085C203.394 0.219192 203.564 0.0805194 203.739 0C205.234 0 206.729 0 208.229 0ZM206.317 11.0088C205.27 11.058 204.222 11.0714 203.184 11.1609C200.207 11.4114 197.239 11.7022 194.262 11.9571C191.487 12.1942 188.707 12.3955 185.927 12.6326C181.562 13.0039 177.202 13.3931 172.838 13.7688C170.21 13.997 167.578 14.2027 164.95 14.4309C161.776 14.7037 158.607 14.99 155.433 15.2629C152.805 15.491 150.173 15.6923 147.545 15.925C143.481 16.2828 139.42 16.672 135.356 17.0209C132.482 17.2669 129.599 17.4638 126.721 17.7053C122.258 18.0811 117.794 18.4479 113.336 18.8729C111.111 19.0876 108.873 19.2084 106.684 19.7317C95.6178 22.3665 89.5387 31.4742 90.1027 42.3353C90.3445 47.001 90.8279 51.6532 91.2845 56.3055C91.486 58.3811 91.6024 60.4701 92.1082 62.5099C93.966 69.949 98.3261 75.1873 105.6 77.8623C109.683 79.3653 113.9 79.2401 118.139 78.8375C121.112 78.5557 124.084 78.2917 127.061 78.0368C129.836 77.7997 132.616 77.5939 135.396 77.3568C138.57 77.0884 141.739 76.7977 144.913 76.5248C147.541 76.2966 150.173 76.0909 152.801 75.8627C155.925 75.5943 159.045 75.308 162.17 75.0396C164.896 74.807 167.627 74.6013 170.353 74.3687C174.669 73.9974 178.979 73.6127 183.29 73.2414C185.967 73.0088 188.649 72.803 191.326 72.5749C195.641 72.2036 199.956 71.8591 204.263 71.4342C206.935 71.1702 209.626 71.0987 212.276 70.5798C217.012 69.6493 221.126 67.5692 224.38 63.9727C228.964 58.9044 230.244 52.8163 229.689 46.2047C229.425 43.0332 229.134 39.8661 228.848 36.6945C228.637 34.3684 228.503 32.0288 228.19 29.7161C226.69 18.6134 216.054 10.5615 206.313 11.0177L206.317 11.0088Z" fill="#01ECF3"/>
<path d="M184.194 114.208C184.727 114.619 185.349 114.445 185.931 114.445C198.694 114.454 211.461 114.463 224.223 114.436C225.665 114.436 226.856 114.785 227.8 115.917C228.436 116.677 228.749 117.554 228.834 118.507C229.331 123.951 229.967 129.377 230.625 134.803C230.719 135.586 230.571 136.404 230.938 137.156C230.867 138.408 231.149 139.63 231.269 140.864C231.583 144.027 231.865 147.194 232.299 150.339C232.447 151.403 232.241 152.544 232.814 153.546C232.595 155.201 233.038 156.812 233.176 158.44C233.463 161.755 233.897 165.056 234.273 168.362C234.636 171.52 235.012 174.674 235.361 177.832C235.701 180.891 236.015 183.956 236.35 187.02C236.713 190.326 237.098 193.631 237.461 196.942C237.796 200.001 238.114 203.066 238.45 206.125C238.803 209.333 239.179 212.54 239.538 215.747C239.878 218.807 240.2 221.871 240.536 224.931C240.89 228.188 241.086 231.475 241.655 234.696C242.089 237.161 240.115 239.899 237.317 239.867C226.851 239.751 216.385 239.818 205.919 239.823C205.27 239.823 204.625 239.85 203.976 239.863C202.141 239.836 200.305 239.791 198.47 239.796C194.746 239.805 191.026 239.841 187.301 239.863C184.015 239.85 180.725 239.827 177.439 239.827C169.87 239.823 162.295 239.827 154.726 239.827C154.077 239.827 153.432 239.854 152.783 239.867C150.558 239.841 148.333 239.796 146.108 239.796C142.796 239.796 139.483 239.841 136.17 239.863C131.439 239.85 126.707 239.832 121.975 239.823C117.092 239.814 112.212 239.832 107.328 239.814C105.274 239.805 103.662 238.584 103.259 236.745C103.067 235.864 103.174 234.96 103.273 234.07C103.649 230.666 104.025 227.262 104.41 223.857C104.768 220.699 105.148 217.55 105.502 214.392C105.833 211.431 106.142 208.469 106.469 205.508C106.84 202.153 107.234 198.803 107.601 195.448C107.946 192.289 108.25 189.127 108.595 185.969C108.94 182.81 109.325 179.657 109.674 176.499C110.014 173.439 110.332 170.379 110.668 167.319C111.021 164.112 111.438 160.914 111.733 157.702C111.948 155.331 112.436 152.987 112.396 150.594C112.615 149.824 112.7 149.041 112.776 148.245C112.991 146.022 113.278 143.808 113.51 141.589C113.774 139.124 114.012 136.655 114.262 134.186C114.562 131.569 114.871 128.956 115.167 126.339C115.48 123.575 115.744 120.806 116.093 118.046C116.38 115.782 118.439 114.414 120.346 114.432C129.021 114.499 137.697 114.463 146.372 114.458C152.805 114.458 159.238 114.458 165.666 114.454C166.203 114.454 166.767 114.597 167.264 114.244C169.046 114.253 170.828 114.279 172.609 114.275C176.468 114.262 180.331 114.239 184.19 114.217L184.194 114.208ZM173.07 167.087C184.042 167.087 195.01 167.087 205.982 167.087C207.875 167.087 209.773 167.1 211.667 167.087C214.201 167.064 215.373 165.642 214.975 163.115C214.899 162.622 214.854 162.13 214.805 161.634C214.478 158.319 214.174 155.004 213.833 151.69C213.377 147.243 212.893 142.797 212.437 138.35C212.11 135.188 211.824 132.016 211.483 128.858C211.295 127.14 210.225 126.219 208.475 126.169C208.224 126.161 207.978 126.169 207.728 126.169C184.588 126.169 161.454 126.169 138.315 126.169C137.916 126.169 137.513 126.147 137.119 126.183C135.812 126.308 134.814 127.23 134.595 128.536C134.469 129.269 134.402 130.012 134.326 130.755C134.093 133.13 133.883 135.505 133.641 137.881C133.279 141.441 132.898 144.998 132.522 148.554C132.258 151.072 131.972 153.591 131.721 156.114C131.466 158.686 131.184 161.258 131.014 163.835C130.879 165.87 131.989 166.997 134.026 167.087C134.425 167.105 134.823 167.087 135.221 167.087C147.836 167.087 160.456 167.087 173.07 167.087ZM130.396 182.001C130.382 185.647 133.346 188.648 137.07 188.585C140.813 188.527 143.713 185.87 143.798 182.01C143.875 178.503 140.745 175.541 137.146 175.506C133.395 175.47 130.405 178.342 130.396 181.996V182.001ZM150.169 182.032C150.03 184.958 152.496 188.527 156.888 188.594C160.46 188.653 163.549 185.62 163.598 182.131C163.652 178.57 160.59 175.537 156.91 175.51C153.204 175.483 150.177 178.409 150.169 182.032Z" fill="#01ECF3"/>
<path d="M114.272 134.186C114.022 136.655 113.78 139.124 113.52 141.589C113.283 143.808 113.001 146.022 112.786 148.245C112.71 149.041 112.625 149.824 112.406 150.594C106.461 149.641 100.525 148.643 94.6294 147.4C86.5896 145.7 78.693 143.548 70.9845 140.636C60.2677 136.588 52.5189 129.35 47.0396 119.442C42.7556 111.694 39.6623 103.472 37.0794 95.0397C35.9289 91.2866 34.8635 87.5067 33.7578 83.7357C33.9234 83.6373 34.0801 83.4986 34.2592 83.4494C38.4671 82.2818 42.4646 80.6088 46.3099 78.5511C47.2187 78.0635 48.0245 77.3791 49.0451 77.0973C50.4328 81.7719 51.7892 86.4554 53.2217 91.1166C55.1555 97.4016 57.3311 103.602 60.3572 109.462C61.1362 110.969 62.0001 112.423 62.8909 113.863C66.0827 119.048 70.5637 122.667 76.1638 125.02C82.2071 127.556 88.4966 129.238 94.8756 130.647C101.299 132.065 107.786 133.134 114.272 134.186Z" fill="#969696"/>
<path d="M232.809 153.551C232.236 152.549 232.442 151.408 232.294 150.343C231.864 147.199 231.578 144.031 231.265 140.869C231.144 139.634 230.862 138.413 230.933 137.16C234.671 136.592 238.418 136.078 242.143 135.443C247.984 134.454 253.759 133.215 259.283 130.983C263.778 129.167 267.296 126.272 269.83 122.126C272.596 117.599 274.615 112.745 276.455 107.798C278.81 101.459 280.699 94.9638 282.709 88.5133C282.812 88.1822 282.933 87.8557 283.044 87.5247C283.407 87.5962 283.653 87.8467 283.913 88.0749C286.353 90.2221 289.056 91.9622 291.953 93.4249C293.824 94.3688 295.825 94.9593 297.763 95.7242C294.853 105.445 291.774 115.107 287.32 124.264C285.99 126.997 284.486 129.627 282.852 132.191C278.899 138.4 273.433 142.761 266.705 145.646C260.962 148.111 254.977 149.744 248.875 150.992C243.557 152.079 238.19 152.844 232.813 153.551H232.809Z" fill="#969696"/>
<path d="M49.0395 77.0975C48.0189 77.3793 47.2131 78.0637 46.3044 78.5513C42.4591 80.609 38.4615 82.2821 34.2536 83.4496C34.0746 83.4988 33.9179 83.6375 33.7523 83.7359C30.8783 84.3174 28.0178 84.9526 25.0499 84.9258C21.9746 84.8989 19.1633 84.0401 16.5445 82.4878C12.5828 80.1438 9.41346 76.8962 6.45001 73.4607C4.30576 70.978 2.39877 68.2896 0.34405 65.7264C-0.125984 65.1404 -0.121507 64.7691 0.384339 64.2054C2.25104 62.1254 4.26995 60.2018 6.19485 58.1844C7.43037 56.8871 8.64798 55.572 9.90588 54.2881C11.1862 52.9775 10.9937 52.8835 12.2516 54.2658C14.0959 56.2966 15.6537 58.5557 17.3369 60.7118C18.8679 62.6756 20.4704 64.5723 22.1447 66.4242C23.895 68.3567 25.981 68.8264 28.367 68.4014C33.1658 67.5425 37.4633 65.5474 41.2997 62.5503C42.5934 61.5394 43.2469 60.2689 43.4081 58.6138C43.6409 56.2251 43.6274 53.8587 43.4484 51.4655C43.3141 49.6806 43.3544 47.8779 43.426 46.0886C43.4842 44.5766 43.6274 44.5453 45.1226 44.7645C49.5499 45.4131 53.9816 46.0438 58.4089 46.6701C59.7026 46.8535 59.7518 46.8714 59.8682 48.2C60.3024 53.1251 60.2219 58.0278 59.2549 62.9037C58.1761 68.3343 55.5394 72.7226 50.866 75.8002C50.2437 76.2118 49.6528 76.6636 49.044 77.0975H49.0395Z" fill="#01ECF3"/>
<path d="M297.764 95.7241C295.826 94.9591 293.825 94.3687 291.954 93.4248C289.053 91.962 286.354 90.2219 283.914 88.0747C283.654 87.8466 283.408 87.5916 283.046 87.5245C281.752 86.0796 280.4 84.6884 279.357 83.0288C278.108 81.0382 277.468 78.8866 277.325 76.556C277.002 71.3625 278.041 66.3613 279.464 61.4183C280.082 59.2667 280.767 57.1374 281.425 54.9991C281.783 53.8316 281.788 53.8361 283.077 54.0508C287.491 54.7844 291.905 55.518 296.318 56.2517C296.368 56.2606 296.417 56.2651 296.466 56.274C298.069 56.5693 298.127 56.5872 297.666 58.1618C296.6 61.7896 295.459 65.3906 294.367 69.0095C293.982 70.2934 293.624 71.5861 293.467 72.9281C293.324 74.1493 293.668 75.1916 294.438 76.1131C295.907 77.8756 297.679 79.1729 299.904 79.8573C301.713 80.412 303.347 80.1838 304.851 79.0521C305.688 78.4258 306.494 77.7593 307.25 77.0346C310.854 73.5857 314.068 69.7745 317.43 66.1019C318.437 65.0014 319.426 63.8921 320.639 62.8587C321.879 64.2141 323.092 65.5203 324.283 66.8534C326.508 69.3361 328.719 71.8411 330.949 74.3193C331.352 74.7711 331.616 75.0932 331.074 75.6792C327.063 80.0452 323.115 84.4693 318.764 88.5086C316.422 90.6871 313.889 92.6196 311.149 94.2658C307.523 96.4443 303.624 97.0034 299.501 96.1088C298.919 95.9835 298.337 95.8538 297.751 95.7286L297.764 95.7241Z" fill="#01ECF3"/>
<path d="M206.663 268.555C207.097 269.203 207.822 269.485 208.431 269.906C213.982 273.753 219.135 278.042 223.311 283.402C224.506 284.936 225.594 286.546 226.042 288.492C226.436 290.21 225.993 291.368 224.52 292.344C223.642 292.925 222.667 293.296 221.677 293.645C217.626 295.077 213.418 295.837 209.201 296.575C204.841 297.34 200.441 297.81 196.045 298.307C194.76 298.454 193.466 298.526 192.177 298.602C188.054 298.852 183.922 299.125 179.786 298.937C178.197 298.866 176.612 298.678 175.05 298.365C172.458 297.85 171.513 296.392 172.127 293.824C172.382 292.76 172.785 291.74 173.286 290.76C174.996 287.419 177.216 284.417 179.558 281.505C182.087 278.36 184.849 275.421 187.759 272.616C188.582 271.82 189.63 271.283 190.301 270.326C191.147 270.017 191.837 269.431 192.607 268.993C195.973 267.074 199.523 266.403 203.337 267.302C204.505 267.579 205.495 268.295 206.663 268.559V268.555Z" fill="#DA107B"/>
<path d="M152.187 270.371C152.331 271.01 152.881 271.328 153.302 271.735C157.694 275.971 161.561 280.637 164.74 285.848C166.091 288.063 167.282 290.353 167.672 292.974C167.958 294.902 167.22 296.298 165.416 297.005C163.782 297.644 162.04 297.832 160.317 298.047C157.197 298.441 154.054 298.391 150.921 298.4C147.236 298.414 143.552 298.342 139.877 298.051C132.688 297.488 125.507 296.862 118.488 295.086C117.181 294.755 115.901 294.352 114.728 293.668C113.434 292.912 113.054 292.026 113.322 290.541C113.492 289.597 113.873 288.747 114.365 287.924C115.762 285.598 117.584 283.607 119.513 281.742C123.417 277.962 127.616 274.526 132.151 271.516C133.35 270.72 134.59 269.986 135.812 269.225C137.325 268.774 138.767 268.121 140.316 267.758C144.26 266.837 147.863 267.499 151.153 269.847C151.48 270.08 151.789 270.313 152.201 270.362L152.187 270.371Z" fill="#DA107B"/>
<path d="M184.195 114.208C180.336 114.23 176.473 114.253 172.614 114.266C170.833 114.27 169.051 114.248 167.27 114.235C168.031 110.482 168.818 106.737 169.409 102.949C170.242 97.6521 169.727 92.5347 167.945 87.5112C167.744 86.9475 167.574 86.375 167.39 85.8068C168.653 85.2701 170.023 85.4042 171.339 85.2611C174.651 84.8988 177.973 84.6438 181.294 84.3799C182.284 84.2993 183.282 84.3307 184.28 84.3083C185.032 87.3457 185.834 90.3651 186.165 93.4964C186.532 96.9409 186.281 100.354 185.928 103.767C185.561 107.279 184.885 110.746 184.2 114.208H184.195Z" fill="#969696"/>
<path d="M152.189 270.371C151.777 270.326 151.468 270.089 151.142 269.856C147.851 267.508 144.248 266.846 140.304 267.767C138.751 268.13 137.314 268.783 135.801 269.235C135.639 268.644 135.733 268.049 135.742 267.454C135.881 258.257 136.029 249.06 136.177 239.867C139.489 239.845 142.802 239.805 146.114 239.8C148.339 239.8 150.564 239.845 152.789 239.872C152.722 242.35 152.641 244.833 152.596 247.311C152.453 255 152.323 262.69 152.189 270.375V270.371Z" fill="#969696"/>
<path d="M206.662 268.555C205.498 268.291 204.505 267.575 203.336 267.298C199.522 266.394 195.972 267.069 192.606 268.989C191.836 269.427 191.147 270.013 190.301 270.322C189.893 266.26 189.481 262.203 189.079 258.141C188.608 253.386 188.152 248.631 187.691 243.875C187.561 242.538 187.431 241.2 187.297 239.863C191.021 239.84 194.741 239.805 198.466 239.796C200.301 239.796 202.137 239.84 203.972 239.863C204.33 243.831 204.679 247.794 205.051 251.762C205.391 255.381 205.758 258.995 206.107 262.61C206.3 264.591 206.474 266.573 206.658 268.555H206.662Z" fill="#969696"/>
<path d="M206.318 11.0088C216.063 10.557 226.695 18.6045 228.194 29.7072C228.508 32.0199 228.642 34.3594 228.852 36.6855C229.139 39.8526 229.425 43.0242 229.694 46.1958C230.249 52.8073 228.969 58.8955 224.385 63.9637C221.13 67.5603 217.012 69.6404 212.28 70.5708C209.635 71.0897 206.94 71.1613 204.267 71.4252C199.961 71.8502 195.646 72.1991 191.33 72.5659C188.653 72.794 185.972 73.0043 183.295 73.2324C178.98 73.6037 174.669 73.9929 170.358 74.3597C167.632 74.5923 164.901 74.7981 162.175 75.0307C159.05 75.2991 155.93 75.5854 152.805 75.8538C150.178 76.0819 147.545 76.2922 144.918 76.5158C141.744 76.7887 138.575 77.0795 135.401 77.3479C132.625 77.5849 129.845 77.7907 127.065 78.0278C124.093 78.2828 121.116 78.5467 118.144 78.8285C113.905 79.2266 109.692 79.3519 105.605 77.8533C98.3307 75.1783 93.9706 69.9401 92.1128 62.501C91.6025 60.4611 91.4906 58.3721 91.2892 56.2965C90.837 51.6443 90.3491 46.992 90.1074 42.3264C89.5433 31.4652 95.6179 22.3576 106.688 19.7228C108.877 19.1994 111.116 19.0786 113.34 18.8639C117.799 18.4389 122.262 18.0721 126.725 17.6964C129.604 17.4548 132.482 17.2625 135.36 17.012C139.425 16.663 143.485 16.2739 147.55 15.916C150.178 15.6834 152.805 15.4776 155.438 15.2539C158.611 14.9811 161.781 14.6948 164.955 14.4219C167.582 14.1983 170.215 13.988 172.842 13.7599C177.207 13.3841 181.567 12.9949 185.932 12.6236C188.707 12.3866 191.487 12.1853 194.267 11.9482C197.239 11.6932 200.212 11.4024 203.189 11.1519C204.232 11.0625 205.279 11.049 206.322 10.9998L206.318 11.0088ZM189.334 61.83C189.934 61.83 190.533 61.8792 191.124 61.8166C191.961 61.7271 192.799 61.5839 193.627 61.405C200.037 60.0228 205.028 56.5112 208.587 51.0717C211.466 46.6699 212.661 41.8164 211.604 36.5558C210.015 28.6246 205.48 23.0822 197.978 20.0359C194.034 18.4345 189.92 17.7903 185.69 18.6313C178.832 19.9912 173.532 23.6772 169.825 29.5954C167.743 32.919 166.624 36.5782 166.736 40.4968C166.839 44.1336 167.864 47.5601 169.861 50.6422C174.436 57.6966 180.913 61.4632 189.334 61.8255V61.83ZM109.115 47.2157C109.043 49.1884 109.334 51.094 109.947 52.9549C111.872 58.815 115.606 63.1764 120.968 66.1512C126.103 69.0007 131.52 69.8372 137.25 68.2492C143.132 66.6164 147.698 63.1809 150.979 58.0992C153.781 53.7601 154.99 48.9826 153.951 43.8562C152.322 35.8043 147.765 30.0874 140.003 27.0948C136.806 25.8646 133.489 25.1892 130.06 25.5068C124.997 25.9765 120.512 27.9268 116.729 31.3042C111.989 35.5314 109.164 40.7339 109.115 47.2157Z" fill="#969696"/>
<path d="M173.072 167.087C160.457 167.087 147.838 167.087 135.223 167.087C134.824 167.087 134.426 167.1 134.028 167.087C131.991 166.993 130.881 165.866 131.015 163.835C131.185 161.258 131.462 158.686 131.722 156.114C131.973 153.591 132.259 151.077 132.523 148.554C132.899 144.998 133.28 141.442 133.643 137.881C133.884 135.505 134.095 133.13 134.327 130.755C134.399 130.012 134.471 129.27 134.596 128.536C134.82 127.23 135.814 126.308 137.121 126.183C137.515 126.143 137.918 126.17 138.316 126.17C161.455 126.17 184.59 126.17 207.729 126.17C207.979 126.17 208.226 126.165 208.476 126.17C210.222 126.219 211.297 127.14 211.485 128.858C211.829 132.021 212.111 135.188 212.438 138.35C212.895 142.797 213.383 147.243 213.835 151.69C214.175 155.005 214.484 158.319 214.806 161.634C214.855 162.126 214.9 162.623 214.976 163.115C215.375 165.638 214.202 167.065 211.668 167.087C209.775 167.105 207.877 167.087 205.983 167.087C195.011 167.087 184.044 167.087 173.072 167.087ZM138.397 146.747C138.083 147.507 138.204 148.317 138.119 149.104C137.73 152.607 137.327 156.109 137.022 159.617C136.848 161.612 136.7 161.464 138.773 161.464C161.639 161.464 184.505 161.464 207.371 161.464C207.572 161.464 207.769 161.464 207.971 161.464C209.143 161.437 209.188 161.41 209.09 160.31C208.897 158.185 208.776 156.042 208.427 153.944C208.217 152.67 208.441 151.35 207.962 150.115C207.988 149.194 208.006 148.272 207.599 147.413C207.738 146.868 207.657 146.322 207.608 145.781C207.205 141.629 206.807 137.483 206.368 133.336C206.207 131.793 206.158 131.797 204.501 131.797C183.484 131.797 162.467 131.797 141.45 131.797C141.199 131.797 140.948 131.819 140.702 131.797C139.999 131.734 139.771 132.061 139.708 132.745C139.35 136.646 138.943 140.542 138.553 144.443C138.477 145.213 138.285 145.973 138.401 146.756L138.397 146.747Z" fill="#1C1B34"/>
<path d="M130.396 182.001C130.409 178.346 133.395 175.474 137.146 175.51C140.745 175.546 143.874 178.507 143.798 182.014C143.713 185.879 140.808 188.532 137.07 188.59C133.346 188.648 130.387 185.651 130.396 182.005V182.001Z" fill="#DA107B"/>
<path d="M150.168 182.032C150.177 178.409 153.203 175.483 156.91 175.51C160.59 175.537 163.652 178.57 163.598 182.131C163.549 185.624 160.455 188.653 156.888 188.595C152.496 188.523 150.034 184.953 150.168 182.032Z" fill="#DA107B"/>
<path d="M189.335 61.8301C180.914 61.4722 174.437 57.7012 169.862 50.6468C167.865 47.5647 166.84 44.1382 166.737 40.5014C166.625 36.5783 167.744 32.9191 169.826 29.5999C173.532 23.6818 178.833 19.9958 185.691 18.6359C189.917 17.7949 194.03 18.4391 197.979 20.0405C205.477 23.0868 210.012 28.6292 211.605 36.5604C212.662 41.821 211.466 46.6701 208.588 51.0763C205.029 56.5158 200.038 60.0274 193.628 61.4096C192.804 61.5885 191.967 61.7272 191.125 61.8211C190.534 61.8838 189.93 61.8346 189.335 61.8346V61.8301ZM189.496 53.5724C191.318 53.644 193.269 53.304 195.167 52.633C204.591 49.3004 206.207 37.1419 200.145 31.1343C196.81 27.833 192.929 26.3255 188.283 26.5939C181.863 26.9696 176.165 30.6914 175.18 37.9963C174.473 43.2525 175.981 47.7705 180.431 50.9868C183.059 52.888 186.085 53.6171 189.5 53.5679L189.496 53.5724Z" fill="#01ECF3"/>
<path d="M109.116 47.2159C109.17 40.7296 111.99 35.5316 116.731 31.3043C120.518 27.927 125.003 25.9811 130.062 25.5069C133.491 25.1893 136.808 25.8648 140.004 27.095C147.766 30.0876 152.323 35.8045 153.953 43.8564C154.991 48.9828 153.783 53.7603 150.98 58.0994C147.695 63.1811 143.129 66.6211 137.251 68.2494C131.525 69.8374 126.109 69.0009 120.97 66.1514C115.607 63.1766 111.874 58.8107 109.949 52.9551C109.335 51.0942 109.049 49.1841 109.116 47.2159ZM131.718 60.7297C133.616 60.8192 135.568 60.4703 137.461 59.7948C147.14 56.3504 148.335 44.0398 142.453 38.3006C139.14 35.0664 135.344 33.5321 130.742 33.7468C124.39 34.0465 118.266 37.737 117.38 45.7352C116.825 50.7587 118.826 56.2341 124.112 59.003C126.449 60.2242 128.951 60.8013 131.713 60.7253L131.718 60.7297Z" fill="#01ECF3"/>
<path d="M138.552 144.434C138.941 140.533 139.349 136.637 139.707 132.736C139.769 132.052 139.998 131.725 140.7 131.788C140.947 131.81 141.197 131.788 141.448 131.788C162.465 131.788 183.482 131.788 204.5 131.788C206.156 131.788 206.205 131.788 206.366 133.327C206.805 137.474 207.204 141.625 207.606 145.772C207.66 146.313 207.736 146.863 207.597 147.404C206.823 147.275 206.501 146.626 206.062 146.094C205.431 145.324 204.052 145.356 203.851 146.192C203.51 147.592 202.293 148.201 201.487 149.171C201.133 149.601 200.704 149.529 200.305 149.185C199.925 148.854 199.62 148.469 199.401 148.008C199.123 147.427 198.85 146.832 198.515 146.282C196.966 143.754 195.873 141.057 195.354 138.131C195.211 137.331 194.871 136.615 194.311 136.02C193.644 135.304 193.322 135.367 192.937 136.257C191.97 138.503 191.321 140.847 190.739 143.208C189.803 147.015 188.532 150.733 187.807 154.593C187.771 154.785 187.646 154.951 187.234 154.96C185.595 152.186 183.585 149.534 182.162 146.523C181.714 145.57 181.423 145.369 180.452 145.74C179.991 145.915 179.566 146.188 179.131 146.429C178.285 146.89 177.672 147.624 176.974 148.263C176.231 148.943 175.774 148.952 175.107 148.192C174.717 147.749 174.471 147.185 174.14 146.693C173.513 145.763 173.191 145.66 172.161 146.121C170.881 146.693 169.704 147.418 168.719 148.447C167.577 149.641 166.673 151.014 165.805 152.401C165.084 153.551 164.077 154.459 163.329 155.573C163.168 155.814 162.926 156.074 162.591 155.944C162.291 155.828 162.179 155.532 162.147 155.219C162.138 155.121 162.139 155.018 162.125 154.92C161.718 152.164 161.525 149.395 161.539 146.613C161.548 144.971 161.275 143.361 161.024 141.741C160.782 140.176 160.326 138.646 160.334 137.04C160.339 135.877 160.079 135.675 158.902 135.707C158.11 135.729 157.452 135.98 157.017 136.7C156.682 137.254 156.185 137.675 155.759 138.158C154.587 139.5 153.365 140.815 152.608 142.479C151.968 143.884 151.247 145.253 150.549 146.626C150.361 146.993 150.218 147.454 149.573 147.44C149.573 146.693 149.6 145.995 149.568 145.302C149.515 144.148 148.987 143.853 148.046 144.43C147.572 144.72 147.227 145.141 146.892 145.579C145.96 146.805 145.02 148.026 144.053 149.225C143.458 149.963 143.351 149.968 142.657 149.315C141.676 148.393 140.768 147.409 140.029 146.268C139.604 145.611 139.313 144.828 138.556 144.43L138.552 144.434Z" fill="#CCCCCC"/>
<path d="M207.961 150.115C208.44 151.35 208.217 152.669 208.427 153.944C208.772 156.046 208.897 158.185 209.089 160.31C209.188 161.41 209.139 161.437 207.97 161.464C207.773 161.468 207.572 161.464 207.37 161.464C184.504 161.464 161.638 161.464 138.772 161.464C136.7 161.464 136.852 161.611 137.022 159.616C137.326 156.105 137.734 152.607 138.119 149.104C138.204 148.317 138.083 147.507 138.396 146.746C138.772 146.84 138.938 147.145 139.135 147.44C139.968 148.688 140.975 149.784 142.063 150.813C143.28 151.962 143.8 151.904 144.829 150.616C145.863 149.319 146.709 147.86 148.097 146.608C148.021 147.735 148.343 148.545 149.095 149.144C149.749 149.668 150.277 149.632 150.729 148.961C151.535 147.766 152.332 146.568 152.86 145.203C153.746 142.904 155.062 140.869 156.817 139.12C157.238 138.699 157.699 138.314 157.995 137.778C158.133 137.523 158.299 137.245 158.733 137.397C159.257 139.737 159.879 142.108 159.991 144.514C160.143 147.887 160.385 151.251 160.6 154.62C160.689 156.02 161.276 156.959 162.247 157.804C162.762 158.252 163.223 158.252 163.613 157.639C164.996 155.452 166.898 153.658 168.255 151.435C169.163 149.949 170.354 148.652 171.908 147.766C172.704 147.315 172.866 147.319 173.286 148.151C173.765 149.095 174.473 149.712 175.422 150.137C176.25 150.504 176.935 150.468 177.575 149.762C178.107 149.171 178.694 148.621 179.289 148.093C180.377 147.136 180.731 147.185 181.469 148.375C182.624 150.231 183.757 152.106 184.912 153.962C185.382 154.722 185.856 155.487 186.573 156.06C187.486 156.794 188.497 156.583 189.003 155.51C189.209 155.067 189.406 154.593 189.384 154.078C189.361 153.622 189.523 153.201 189.643 152.768C190.373 150.137 191.067 147.498 191.806 144.868C192.414 142.703 192.773 140.457 193.784 138.202C194.393 140.399 195.042 142.367 195.857 144.295C196.515 145.856 197.491 147.243 198.113 148.831C198.579 150.016 199.698 150.719 200.911 151.162C201.367 151.327 201.855 151.345 202.115 150.889C202.764 149.735 203.91 149.032 204.676 147.981C205.168 147.301 205.401 147.306 205.92 147.972C206.533 148.764 207.16 149.524 207.984 150.11L207.961 150.115Z" fill="#CCCCCC"/>
<path d="M207.962 150.115C207.138 149.533 206.512 148.768 205.898 147.977C205.383 147.31 205.146 147.306 204.654 147.986C203.893 149.037 202.747 149.739 202.093 150.893C201.838 151.35 201.346 151.332 200.889 151.166C199.676 150.723 198.557 150.021 198.091 148.836C197.469 147.248 196.498 145.865 195.835 144.3C195.02 142.372 194.367 140.403 193.762 138.207C192.746 140.462 192.388 142.703 191.784 144.872C191.05 147.502 190.351 150.142 189.622 152.772C189.501 153.206 189.344 153.622 189.362 154.083C189.384 154.597 189.187 155.076 188.982 155.514C188.476 156.588 187.464 156.798 186.551 156.064C185.839 155.492 185.364 154.727 184.89 153.966C183.74 152.106 182.607 150.236 181.448 148.379C180.709 147.189 180.355 147.14 179.267 148.097C178.668 148.625 178.086 149.175 177.553 149.766C176.913 150.473 176.228 150.509 175.4 150.142C174.446 149.721 173.739 149.099 173.264 148.156C172.844 147.324 172.683 147.315 171.886 147.771C170.332 148.657 169.142 149.949 168.233 151.439C166.876 153.658 164.974 155.456 163.591 157.643C163.201 158.256 162.745 158.256 162.225 157.809C161.254 156.968 160.668 156.024 160.578 154.624C160.368 151.256 160.126 147.892 159.969 144.519C159.862 142.112 159.235 139.741 158.711 137.402C158.282 137.25 158.116 137.527 157.973 137.782C157.677 138.319 157.216 138.708 156.795 139.124C155.041 140.869 153.725 142.904 152.838 145.208C152.314 146.572 151.513 147.766 150.707 148.965C150.255 149.636 149.727 149.672 149.073 149.149C148.321 148.545 148.004 147.735 148.075 146.612C146.687 147.865 145.841 149.323 144.807 150.62C143.778 151.909 143.258 151.967 142.041 150.817C140.953 149.788 139.946 148.688 139.113 147.444C138.916 147.149 138.751 146.845 138.375 146.751C138.263 145.968 138.451 145.208 138.527 144.438C139.283 144.836 139.574 145.624 140 146.277C140.738 147.417 141.647 148.402 142.627 149.323C143.321 149.976 143.429 149.972 144.024 149.234C144.991 148.035 145.935 146.818 146.862 145.588C147.198 145.145 147.542 144.725 148.017 144.438C148.957 143.861 149.485 144.156 149.539 145.311C149.57 146.004 149.543 146.702 149.543 147.449C150.188 147.462 150.331 147.001 150.519 146.635C151.222 145.261 151.943 143.893 152.579 142.488C153.335 140.824 154.557 139.509 155.73 138.167C156.151 137.684 156.652 137.263 156.988 136.708C157.422 135.988 158.08 135.738 158.872 135.715C160.05 135.684 160.309 135.885 160.305 137.048C160.296 138.654 160.753 140.189 160.994 141.75C161.245 143.369 161.518 144.98 161.509 146.621C161.496 149.404 161.684 152.173 162.096 154.928C162.109 155.027 162.109 155.125 162.118 155.228C162.149 155.541 162.261 155.836 162.561 155.953C162.901 156.082 163.139 155.823 163.3 155.581C164.047 154.463 165.055 153.559 165.775 152.41C166.644 151.023 167.548 149.65 168.689 148.455C169.674 147.426 170.847 146.697 172.132 146.129C173.162 145.668 173.484 145.771 174.111 146.702C174.442 147.194 174.692 147.757 175.077 148.2C175.74 148.961 176.197 148.952 176.944 148.272C177.643 147.637 178.256 146.903 179.102 146.438C179.536 146.201 179.961 145.928 180.422 145.749C181.389 145.382 181.68 145.579 182.132 146.532C183.556 149.542 185.566 152.195 187.204 154.968C187.621 154.959 187.742 154.794 187.777 154.602C188.498 150.741 189.774 147.024 190.709 143.217C191.291 140.855 191.94 138.507 192.907 136.266C193.292 135.375 193.615 135.313 194.282 136.028C194.837 136.623 195.181 137.339 195.325 138.14C195.844 141.065 196.936 143.763 198.485 146.29C198.821 146.84 199.089 147.435 199.371 148.017C199.591 148.473 199.891 148.862 200.276 149.193C200.674 149.538 201.104 149.609 201.458 149.18C202.263 148.205 203.481 147.601 203.821 146.201C204.023 145.36 205.401 145.328 206.033 146.102C206.471 146.635 206.794 147.283 207.568 147.413C207.98 148.276 207.962 149.193 207.931 150.115H207.962Z" fill="#FCFCFC"/>
<path d="M189.495 53.5722C186.08 53.6214 183.058 52.8878 180.426 50.9911C175.981 47.7748 174.468 43.2568 175.175 38.0006C176.16 30.6957 181.858 26.9739 188.278 26.5982C192.924 26.3253 196.805 27.8328 200.14 31.1386C206.202 37.1418 204.59 49.3047 195.163 52.6373C193.265 53.3083 191.317 53.6482 189.491 53.5767L189.495 53.5722Z" fill="#1C1B34"/>
<path d="M131.716 60.7294C128.954 60.8054 126.452 60.2284 124.115 59.0072C118.824 56.2382 116.828 50.7629 117.383 45.7393C118.264 37.7411 124.393 34.0506 130.745 33.7509C135.347 33.5317 139.143 35.0705 142.456 38.3047C148.338 44.0395 147.142 56.3545 137.464 59.7989C135.571 60.4744 133.619 60.8233 131.721 60.7338L131.716 60.7294Z" fill="#1C1B34"/>
</g>
<defs>
<clipPath id="clip0_31_59">
<rect width="331.392" height="299" fill="white"/>
</clipPath>
</defs>
</svg>
