<svg width="282" height="282" viewBox="0 0 282 282" fill="none" xmlns="http://www.w3.org/2000/svg">
<path fill-rule="evenodd" clip-rule="evenodd" d="M282 141C282 218.872 218.872 282 141 282C63.1278 282 0 218.872 0 141C0 63.1278 63.1278 0 141 0C218.872 0 282 63.1278 282 141ZM96.7471 216.769C92.8419 220.674 86.5102 220.674 82.6049 216.769L65.0711 199.235C61.1658 195.33 61.1658 188.998 65.0711 185.093L109.41 140.754L65.4036 96.7471C61.4984 92.8419 61.4984 86.5102 65.4036 82.605L82.9375 65.0711C86.8427 61.1658 93.1744 61.1658 97.0796 65.0711L141.086 109.078L184.832 65.3318C188.737 61.4265 195.069 61.4265 198.974 65.3318L216.508 82.8657C220.413 86.7709 220.413 93.1026 216.508 97.0078L172.762 140.754L216.841 184.832C220.746 188.737 220.746 195.069 216.841 198.974L199.307 216.508C195.402 220.413 189.07 220.413 185.165 216.508L141.086 172.43L96.7471 216.769Z" fill="white"/>
</svg>
