<?xml version="1.0" encoding="UTF-8"?>
<svg id="Layer_1" data-name="Layer 1" xmlns="http://www.w3.org/2000/svg" viewBox="0 0 456.43 483.28">
  <defs>
    <style>
      .cls-1 {
        letter-spacing: -.02em;
      }

      .cls-2 {
        fill: none;
        stroke-linecap: round;
        stroke-width: 2.98px;
      }

      .cls-2, .cls-3 {
        stroke: #f4bd92;
        stroke-miterlimit: 10;
      }

      .cls-3 {
        stroke-width: 2.76px;
      }

      .cls-3, .cls-4 {
        fill: #fff;
      }

      .cls-5 {
        font-family: Athelas-Bold, Athelas;
        font-size: 29px;
        font-weight: 700;
      }

      .cls-5, .cls-6 {
        fill: #0a0b37;
      }

      .cls-7, .cls-8, .cls-6, .cls-9, .cls-10, .cls-11, .cls-12, .cls-13, .cls-4, .cls-14, .cls-15, .cls-16 {
        stroke-width: 0px;
      }

      .cls-8 {
        fill: #4c2c1b;
      }

      .cls-9 {
        fill: #07ebf3;
      }

      .cls-10 {
        fill: #121b3a;
      }

      .cls-11 {
        fill: #c6c6c4;
      }

      .cls-12 {
        fill: #e51577;
      }

      .cls-13 {
        fill: #fecda2;
      }

      .cls-14 {
        fill: #ff1691;
      }

      .cls-15 {
        fill: #e5e5e5;
      }

      .cls-16 {
        fill: #6a3c33;
      }

      .cls-17 {
        letter-spacing: -.03em;
      }
    </style>
  </defs>
  <ellipse class="cls-13" cx="229.28" cy="122.9" rx="76.3" ry="97.09"/>
  <path class="cls-13" d="M289.79,149.77c.53.17,1.32.39,2.29.51,6.58.84,12.11-3.84,15.38-6.69,1.13-.99,13.79-12.36,13.97-28.17.08-7.2-2.47-11.91-3.02-12.89-1.33-2.36-2.62-3.57-3.38-4.19-2.16-1.78-4.92-2.88-6.6-2.92-7.87-.18-14.43,22.65-15.2,25.43-1.82,6.48-3.82,16.34-3.43,28.92Z"/>
  <path class="cls-13" d="M164.36,149.77c-.53.17-1.32.39-2.29.51-6.58.84-12.11-3.84-15.38-6.69-1.13-.99-13.79-12.36-13.97-28.17-.08-7.2,2.47-11.91,3.02-12.89,1.33-2.36,2.62-3.57,3.38-4.19,2.16-1.78,4.92-2.88,6.6-2.92,7.87-.18,14.43,22.65,15.2,25.43,1.82,6.48,3.82,16.34,3.43,28.92Z"/>
  <ellipse class="cls-7" cx="194.21" cy="110.39" rx="7.65" ry="10.3"/>
  <ellipse class="cls-7" cx="262.94" cy="110.39" rx="7.65" ry="10.3"/>
  <path class="cls-2" d="M226.11,122.06c-.05.96-.2,2.42-.65,4.14-.63,2.42-1.52,4.02-1.91,4.78-1.45,2.86-3.82,9.71-1.49,12.57,1.82,2.22,6.46,1.99,11.13,0"/>
  <path class="cls-3" d="M227.5,182.98c-9.95.06-18.87-7.28-21.99-18.09,5.75,1.44,13.09,2.68,21.64,2.71,8.76.02,16.27-1.24,22.11-2.71-3.09,10.72-11.89,18.03-21.76,18.09Z"/>
  <path class="cls-8" d="M139.12,98.34c-14.2-17.7-14.92-28.88-12.74-35.91,3.18-10.25,23.14-7.8,25.74-25.69.4-2.72,4.22-25.49,22.18-32.87,0,0-6.45,12.42-6.12,19.3,0,0,24.37-24.12,43.44-23.15,19.07.98,84.22,19.8,89.24,19.45,0,0-8.38,12.08-7.17,15.13,4.21,10.59,13.93,13.61,17.92,27.04,2.8,9.4-2.07,14.35-6.44,34.05-3.06,13.79-3.78,25.35-3.92,32.8-.87-4.81-2.05-12.07-2.93-20.99-1.51-15.4-.28-17.06-1.93-24.1-3.27-14.01-13.27-29.38-21.89-28.59-4.26.39-5.55,5.4-9.23,7.75-8.7,5.56-24.69,10.43-56.76,2.06-17.22-6.82-20.48-9.45-26.08-7.39-5.6,2.06-18.26,11.72-15.57,25.04,0,0,1.38,9.35-5.21,14.36-.12,9.26-.45,19.35-1.13,30.18,0,0-.56,9.45-1.21,9.41-.62-.04-1.42-24.01-6.62-34.69-2.27-4.66-4.73-5.47-5.63-5.68-1.91-.44-3.95.2-4.43.36-1.73.58-2.9,1.53-3.53,2.13Z"/>
  <polygon class="cls-15" points="228.25 470.39 16.02 405.94 16.02 105.83 228.25 160.51 228.25 470.39"/>
  <polygon class="cls-4" points="228.25 483.28 16.02 418.83 16.02 118.72 228.25 173.4 228.25 483.28"/>
  <polygon class="cls-11" points="228.25 470.39 440.47 405.94 440.47 105.83 228.25 160.51 228.25 470.39"/>
  <polygon class="cls-15" points="228.25 483.28 440.47 418.83 440.47 118.72 228.25 173.4 228.25 483.28"/>
  <text class="cls-5" transform="translate(32.17 163.53) rotate(14.43)"><tspan x="0" y="0">Be</tspan><tspan class="cls-1" x="31.93" y="0">r</tspan><tspan x="43.18" y="0">gens</tspan><tspan class="cls-17" x="100.22" y="0">a</tspan><tspan x="113.33" y="0">visen</tspan></text>
  <polygon class="cls-10" points="217.64 227.51 26.28 177.87 26.16 171.19 217.64 221.31 217.64 227.51"/>
  <rect class="cls-11" x="107.54" y="221.46" width="111.22" height="3.28" transform="translate(61.82 -34.04) rotate(14.67)"/>
  <rect class="cls-11" x="107.54" y="228.4" width="111.22" height="3.28" transform="translate(63.58 -33.82) rotate(14.67)"/>
  <rect class="cls-11" x="107.54" y="235.65" width="111.22" height="3.28" transform="translate(65.41 -33.58) rotate(14.67)"/>
  <rect class="cls-11" x="107.54" y="242.69" width="111.22" height="3.28" transform="translate(67.19 -33.35) rotate(14.67)"/>
  <rect class="cls-11" x="107.54" y="249.16" width="111.22" height="3.28" transform="translate(68.83 -33.14) rotate(14.67)"/>
  <rect class="cls-11" x="107.54" y="256.71" width="111.22" height="3.28" transform="translate(70.75 -32.9) rotate(14.67)"/>
  <rect class="cls-11" x="107.54" y="263.8" width="111.22" height="3.28" transform="translate(72.54 -32.66) rotate(14.67)"/>
  <rect class="cls-11" x="107.54" y="271.05" width="111.22" height="3.28" transform="translate(74.38 -32.43) rotate(14.67)"/>
  <rect class="cls-11" x="107.54" y="277.68" width="111.22" height="3.28" transform="translate(76.05 -32.21) rotate(14.67)"/>
  <rect class="cls-11" x="21.84" y="369.78" width="199.39" height="3.28" transform="translate(110.26 -19.22) rotate(16.47)"/>
  <rect class="cls-11" x="21.61" y="376.7" width="199.39" height="3.28" transform="translate(112.21 -18.87) rotate(16.47)"/>
  <rect class="cls-11" x="21.61" y="383.23" width="199.39" height="3.28" transform="translate(114.06 -18.6) rotate(16.47)"/>
  <rect class="cls-11" x="21.61" y="389.95" width="199.39" height="3.28" transform="translate(115.97 -18.32) rotate(16.47)"/>
  <rect class="cls-11" x="21.61" y="396.87" width="199.39" height="3.28" transform="translate(117.93 -18.04) rotate(16.47)"/>
  <rect class="cls-11" x="21.61" y="404.58" width="199.39" height="3.28" transform="translate(120.11 -17.72) rotate(16.47)"/>
  <rect class="cls-11" x="21.61" y="411.3" width="199.39" height="3.28" transform="translate(122.02 -17.45) rotate(16.47)"/>
  <rect class="cls-11" x="21.61" y="418.42" width="199.39" height="3.28" transform="translate(124.04 -17.16) rotate(16.47)"/>
  <rect class="cls-11" x="21.61" y="425.14" width="199.39" height="3.28" transform="translate(125.94 -16.88) rotate(16.47)"/>
  <rect class="cls-11" x="23.18" y="421.21" width="122.78" height="3.28" transform="translate(123.32 -6.63) rotate(16.47)"/>
  <rect class="cls-11" x="108.12" y="280.13" width="75.77" height="3.28" transform="translate(76.12 -27.79) rotate(14.67)"/>
  <polygon class="cls-12" points="106.06 271.57 25.46 248.4 25.85 185.74 105.91 206.7 106.06 271.57"/>
  <polygon class="cls-9" points="106.06 357.34 25.46 334.18 25.85 271.52 105.91 292.48 106.06 357.34"/>
  <polygon class="cls-6" points="217.38 388.78 156.05 371.73 156.12 305.42 217.38 321.46 217.38 388.78"/>
  <polygon class="cls-14" points="149.28 332.77 112.86 322.3 113.01 294.09 149.18 303.56 149.28 332.77"/>
  <polygon class="cls-14" points="149.28 369.91 112.86 359.45 113.01 331.24 149.18 340.71 149.28 369.91"/>
  <polygon class="cls-6" points="240.43 229.15 431.87 176 431.77 169.34 240.34 222.49 240.43 229.15"/>
  <polygon class="cls-14" points="240 300.56 320.61 277.4 320.22 214.74 240.16 235.7 240 300.56"/>
  <polygon class="cls-9" points="337.38 435.63 430.88 407.65 430.83 352.85 337.16 380.32 337.38 435.63"/>
  <polygon class="cls-9" points="240 214.74 273.41 205.08 272.81 177.39 239.61 186.08 240 214.74"/>
  <polygon class="cls-9" points="336.05 188.67 369.46 179.01 368.85 151.32 335.65 160.01 336.05 188.67"/>
  <polygon class="cls-12" points="241.13 354.75 280.35 343.42 279.74 311.3 240.76 321.5 241.13 354.75"/>
  <polygon class="cls-12" points="286.74 379.08 325.97 367.75 325.35 335.63 286.38 345.83 286.74 379.08"/>
  <polygon class="cls-6" points="336.56 327.94 378.53 315.87 378.22 282.85 336.53 293.76 336.56 327.94"/>
  <polygon class="cls-6" points="383.76 314.34 425.73 302.26 425.43 269.24 383.74 280.16 383.76 314.34"/>
  <rect class="cls-11" x="321.57" y="198.06" width="112.53" height="3.28" transform="translate(795.32 291.04) rotate(164.48)"/>
  <rect class="cls-11" x="321.75" y="204.29" width="112.53" height="3.28" transform="translate(797.33 303.24) rotate(164.48)"/>
  <rect class="cls-11" x="321.57" y="211.07" width="112.53" height="3.28" transform="translate(798.81 316.6) rotate(164.48)"/>
  <rect class="cls-11" x="321.57" y="218.03" width="112.53" height="3.28" transform="translate(800.66 330.25) rotate(164.48)"/>
  <rect class="cls-11" x="322.26" y="224.59" width="112.53" height="3.28" transform="translate(803.78 342.95) rotate(164.48)"/>
  <rect class="cls-11" x="322.26" y="231.29" width="112.53" height="3.28" transform="translate(805.57 356.1) rotate(164.48)"/>
  <rect class="cls-11" x="322.26" y="238.19" width="112.53" height="3.28" transform="translate(807.42 369.65) rotate(164.48)"/>
  <rect class="cls-11" x="322.26" y="245.28" width="112.53" height="3.28" transform="translate(809.32 383.58) rotate(164.48)"/>
  <rect class="cls-11" x="322.51" y="252.77" width="112.53" height="3.28" transform="translate(811.8 398.23) rotate(164.48)"/>
  <rect class="cls-11" x="323.51" y="267.21" width="57.64" height="3.28" transform="translate(763.74 433.65) rotate(164.48)"/>
  <rect class="cls-11" x="273.36" y="169.1" width="61.53" height="1.79" transform="translate(642.65 252.44) rotate(164.48)"/>
  <rect class="cls-11" x="273.36" y="171.87" width="61.53" height="1.79" transform="translate(643.39 257.87) rotate(164.48)"/>
  <rect class="cls-11" x="273.26" y="175.08" width="61.53" height="1.79" transform="translate(644.05 264.21) rotate(164.48)"/>
  <rect class="cls-11" x="273.26" y="177.84" width="61.53" height="1.79" transform="translate(644.79 269.62) rotate(164.48)"/>
  <rect class="cls-11" x="273.26" y="180.6" width="61.53" height="1.79" transform="translate(645.53 275.05) rotate(164.48)"/>
  <rect class="cls-11" x="273.36" y="183.39" width="61.53" height="1.79" transform="translate(646.47 280.49) rotate(164.48)"/>
  <rect class="cls-11" x="273.36" y="186.08" width="61.53" height="1.79" transform="translate(647.19 285.77) rotate(164.48)"/>
  <rect class="cls-11" x="273.36" y="188.76" width="61.53" height="1.79" transform="translate(647.91 291.05) rotate(164.48)"/>
  <rect class="cls-11" x="273.36" y="191.55" width="61.53" height="1.79" transform="translate(648.65 296.52) rotate(164.48)"/>
  <rect class="cls-11" x="274.01" y="199.01" width="25.86" height="1.79" transform="translate(616.9 315.76) rotate(164.48)"/>
  <rect class="cls-11" x="370.67" y="142.5" width="61.53" height="1.79" transform="translate(826.6 174.18) rotate(164.48)"/>
  <rect class="cls-11" x="370.67" y="145.27" width="61.53" height="1.79" transform="translate(827.34 179.61) rotate(164.48)"/>
  <rect class="cls-11" x="370.57" y="148.48" width="61.53" height="1.79" transform="translate(828.01 185.94) rotate(164.48)"/>
  <rect class="cls-11" x="370.57" y="151.24" width="61.53" height="1.79" transform="translate(828.75 191.36) rotate(164.48)"/>
  <rect class="cls-11" x="370.57" y="154" width="61.53" height="1.79" transform="translate(829.49 196.79) rotate(164.48)"/>
  <rect class="cls-11" x="370.67" y="156.78" width="61.53" height="1.79" transform="translate(830.42 202.22) rotate(164.48)"/>
  <rect class="cls-11" x="370.67" y="159.48" width="61.53" height="1.79" transform="translate(831.14 207.51) rotate(164.48)"/>
  <rect class="cls-11" x="370.67" y="162.16" width="61.53" height="1.79" transform="translate(831.86 212.79) rotate(164.48)"/>
  <rect class="cls-11" x="370.67" y="164.95" width="61.53" height="1.79" transform="translate(832.61 218.25) rotate(164.48)"/>
  <rect class="cls-11" x="371.12" y="170.94" width="36.79" height="1.79" transform="translate(810.81 233.21) rotate(164.48)"/>
  <rect class="cls-11" x="280.43" y="305.02" width="45.93" height="1.79" transform="translate(677.57 519.51) rotate(164.48)"/>
  <rect class="cls-11" x="280.61" y="307.73" width="45.93" height="1.79" transform="translate(678.65 524.8) rotate(164.48)"/>
  <rect class="cls-11" x="280.75" y="310.88" width="45.93" height="1.79" transform="translate(679.76 530.94) rotate(164.48)"/>
  <rect class="cls-11" x="280.93" y="313.59" width="45.93" height="1.79" transform="translate(680.84 536.21) rotate(164.48)"/>
  <rect class="cls-11" x="280.93" y="316.3" width="45.93" height="1.79" transform="translate(681.56 541.53) rotate(164.48)"/>
  <rect class="cls-11" x="280.93" y="319.01" width="45.93" height="1.79" transform="translate(682.29 546.85) rotate(164.48)"/>
  <rect class="cls-11" x="280.93" y="321.72" width="45.93" height="1.79" transform="translate(683.01 552.17) rotate(164.48)"/>
  <rect class="cls-11" x="280.93" y="324.73" width="45.93" height="1.79" transform="translate(683.82 558.1) rotate(164.48)"/>
  <rect class="cls-11" x="280.93" y="327.66" width="45.93" height="1.79" transform="translate(684.6 563.85) rotate(164.48)"/>
  <rect class="cls-11" x="280.93" y="330.5" width="45.93" height="1.79" transform="translate(685.36 569.41) rotate(164.48)"/>
  <rect class="cls-11" x="280.93" y="333.36" width="45.93" height="1.79" transform="translate(686.12 575.03) rotate(164.48)"/>
  <rect class="cls-11" x="281.25" y="338.3" width="27.93" height="1.79" transform="translate(670.42 587.06) rotate(164.48)"/>
  <rect class="cls-11" x="238.6" y="354.04" width="45.93" height="1.79" transform="translate(608.54 626.97) rotate(164.48)"/>
  <rect class="cls-11" x="238.78" y="356.76" width="45.93" height="1.79" transform="translate(609.62 632.25) rotate(164.48)"/>
  <rect class="cls-11" x="238.91" y="359.9" width="45.93" height="1.79" transform="translate(610.73 638.39) rotate(164.48)"/>
  <rect class="cls-11" x="239.09" y="362.61" width="45.93" height="1.79" transform="translate(611.81 643.66) rotate(164.48)"/>
  <rect class="cls-11" x="239.09" y="365.32" width="45.93" height="1.79" transform="translate(612.53 648.98) rotate(164.48)"/>
  <rect class="cls-11" x="239.09" y="368.03" width="45.93" height="1.79" transform="translate(613.25 654.3) rotate(164.48)"/>
  <rect class="cls-11" x="239.09" y="370.74" width="45.93" height="1.79" transform="translate(613.98 659.62) rotate(164.48)"/>
  <rect class="cls-11" x="239.09" y="373.76" width="45.93" height="1.79" transform="translate(614.79 665.55) rotate(164.48)"/>
  <rect class="cls-11" x="239.09" y="376.69" width="45.93" height="1.79" transform="translate(615.57 671.3) rotate(164.48)"/>
  <rect class="cls-11" x="239.09" y="379.52" width="45.93" height="1.79" transform="translate(616.33 676.86) rotate(164.48)"/>
  <rect class="cls-11" x="239.09" y="382.38" width="45.93" height="1.79" transform="translate(617.09 682.48) rotate(164.48)"/>
  <rect class="cls-11" x="238.75" y="394.52" width="89.54" height="3.29" transform="translate(662.69 702.05) rotate(164.48)"/>
  <rect class="cls-11" x="239.39" y="399.48" width="89.18" height="3.29" transform="translate(664.92 711.67) rotate(164.48)"/>
  <rect class="cls-11" x="239.48" y="405.3" width="89.28" height="3.29" transform="translate(666.74 723.05) rotate(164.48)"/>
  <rect class="cls-11" x="239.64" y="410.31" width="89.4" height="3.29" transform="translate(668.52 732.83) rotate(164.48)"/>
  <rect class="cls-11" x="239.8" y="415.28" width="89.17" height="3.29" transform="translate(669.94 742.57) rotate(164.48)"/>
  <rect class="cls-11" x="239.72" y="420.28" width="89.19" height="3.29" transform="translate(671.13 752.41) rotate(164.48)"/>
  <rect class="cls-11" x="239.84" y="425.25" width="89" height="3.29" transform="translate(672.52 762.17) rotate(164.48)"/>
  <rect class="cls-11" x="239.88" y="430.81" width="88.89" height="3.29" transform="translate(673.97 773.08) rotate(164.48)"/>
  <rect class="cls-11" x="240.01" y="436.18" width="88.68" height="3.29" transform="translate(675.46 783.63) rotate(164.48)"/>
  <rect class="cls-11" x="239.94" y="441.41" width="88.68" height="3.29" transform="translate(676.73 793.91) rotate(164.48)"/>
  <rect class="cls-11" x="239.88" y="446.69" width="88.68" height="3.29" transform="translate(678.01 804.29) rotate(164.48)"/>
  <rect class="cls-11" x="239.62" y="388.8" width="16.91" height="1.79" transform="translate(591.36 698.83) rotate(164.48)"/>
  <rect class="cls-11" x="333.96" y="320.55" width="99.56" height="1.79" transform="translate(839.48 528.53) rotate(164.48)"/>
  <rect class="cls-11" x="333.96" y="324.04" width="99.56" height="1.79" transform="translate(840.41 535.38) rotate(164.48)"/>
  <rect class="cls-11" x="333.63" y="327.41" width="99.56" height="1.79" transform="translate(840.67 542.08) rotate(164.48)"/>
  <rect class="cls-11" x="333.63" y="331.09" width="99.56" height="1.79" transform="translate(841.65 549.31) rotate(164.48)"/>
  <rect class="cls-11" x="333.63" y="334.73" width="99.56" height="1.79" transform="translate(842.63 556.45) rotate(164.48)"/>
  <rect class="cls-11" x="333.63" y="338.22" width="99.56" height="1.79" transform="translate(843.56 563.31) rotate(164.48)"/>
  <rect class="cls-11" x="333.63" y="341.23" width="99.56" height="1.79" transform="translate(844.36 569.21) rotate(164.48)"/>
  <rect class="cls-11" x="333.51" y="344.26" width="99.56" height="1.79" transform="translate(844.95 575.19) rotate(164.48)"/>
  <rect class="cls-11" x="333.63" y="347.42" width="99.56" height="1.79" transform="translate(846.02 581.36) rotate(164.48)"/>
  <rect class="cls-11" x="334.39" y="356.07" width="57.94" height="1.79" transform="translate(808.96 603.71) rotate(164.48)"/>
  <path class="cls-13" d="M16.12,264.8s-28.37,28.74-9.83,45.25c4.07,2.48,7.23,3.69,10.17,4.19,3.36.57,6.06.29,7.63.08,12.63-1.67,43.41-10.7,42.45-15.84-.12-.62-.66-1.06-.76-1.14-1.88-1.48-5.45,1.08-9.89,2.7-5.99,2.18-12.01,2.08-12.21,1.34-.16-.61,3.66-1.8,10.13-4.76,6.2-2.84,19.88-9.1,19.14-13.41-.02-.14-.13-.67-.55-1.1-1.87-1.92-7.45.79-10.41,2.18-12.88,6.07-21.2,8.6-21.24,8.54-.61-.98,13.55-7.57,19.16-12.57,1.96-1.75,5.98-4.15,5.59-6.96-.01-.08-.25-1.6-1.44-2.27-2.29-1.28-5.98,1.78-12.82,6.67-7.1,5.07-11.55,7.79-11.72,7.57-.21-.27,6.11-5.25,12.45-13.43,2.7-3.49,4.93-6.93,3.79-8.78-.42-.67-1.15-.92-1.34-.99-4.24-1.43-9.53,8.56-18.22,14.04-3.63,2.29-9.44,4.79-18.52,4.76-.25,0-.82-.02-1.19-.41-.42-.46-.46-1.32-.47-1.65,0-.21,0-.48,0-.48,0-.29.01-.5.01-.53.03-4.34.06-8.67.09-13.01Z"/>
  <path class="cls-13" d="M440.32,264.66s28.37,28.74,9.83,45.25c-4.07,2.48-7.23,3.69-10.17,4.19-3.36.57-6.06.29-7.63.08-12.63-1.67-43.41-10.7-42.45-15.84.12-.62.66-1.06.76-1.14,1.88-1.48,5.45,1.08,9.89,2.7,5.99,2.18,12.01,2.08,12.21,1.34.16-.61-3.66-1.8-10.13-4.76-6.2-2.84-19.88-9.1-19.14-13.41.02-.14.13-.67.55-1.1,1.87-1.92,7.45.79,10.41,2.18,12.88,6.07,21.2,8.6,21.24,8.54.61-.98-13.55-7.57-19.16-12.57-1.96-1.75-5.98-4.15-5.59-6.96.01-.08.25-1.6,1.44-2.27,2.29-1.28,5.98,1.78,12.82,6.67,7.1,5.07,11.55,7.79,11.72,7.57.21-.27-6.11-5.25-12.45-13.43-2.7-3.49-4.93-6.93-3.79-8.78.42-.67,1.15-.92,1.34-.99,4.24-1.43,9.53,8.56,18.22,14.04,3.63,2.29,9.44,4.79,18.52,4.76.25,0,.82-.02,1.19-.41.42-.46.46-1.32.47-1.65,0-.21,0-.48,0-.48,0-.29-.01-.5-.01-.53-.03-4.34-.06-8.67-.09-13.01Z"/>
  <path class="cls-16" d="M205.76,90.87c.2.71.06,1.55-.29,2.12-1.25,2.05-4.56-.36-10.9-.13-2.19.08-4.81.18-8.04,1.35-1.63.59-3.47,1.48-3.63,1.12-.12-.28.88-1.15,1.35-1.59,2.97-2.82,6.27-3.96,6.59-4.07,5.28-1.77,13.95-2.19,14.91,1.19Z"/>
  <path class="cls-16" d="M251.38,90.87c-.2.71-.06,1.55.29,2.12,1.25,2.05,4.56-.36,10.9-.13,2.19.08,4.81.18,8.04,1.35,1.63.59,3.47,1.48,3.63,1.12.12-.28-.88-1.15-1.35-1.59-2.97-2.82-6.27-3.96-6.59-4.07-5.28-1.77-13.95-2.19-14.91,1.19Z"/>
</svg>