<?xml version="1.0" encoding="UTF-8"?>
<svg id="Layer_1" data-name="Layer 1" xmlns="http://www.w3.org/2000/svg" viewBox="0 0 344.06 473.09">
  <defs>
    <style>
      .cls-1, .cls-2, .cls-3, .cls-4 {
        stroke-width: 0px;
      }

      .cls-2 {
        fill: #07eaf2;
      }

      .cls-3 {
        fill: #ff1690;
      }

      .cls-4 {
        fill: #ed007d;
      }
    </style>
  </defs>
  <rect class="cls-2" width="43.01" height="43.01"/>
  <rect class="cls-3" x="43.01" width="43.01" height="43.01"/>
  <rect class="cls-4" x="86.02" width="43.01" height="43.01"/>
  <rect class="cls-2" x="129.02" width="43.01" height="43.01"/>
  <rect class="cls-2" x="301.06" width="43.01" height="43.01"/>
  <rect class="cls-4" x="172.03" width="43.01" height="43.01"/>
  <rect class="cls-2" x="215.04" width="43.01" height="43.01"/>
  <rect class="cls-3" x="258.05" width="43.01" height="43.01"/>
  <rect class="cls-3" y="43.01" width="43.01" height="43.01"/>
  <rect class="cls-4" x="43.01" y="43.01" width="43.01" height="43.01"/>
  <rect class="cls-2" x="86.02" y="43.01" width="43.01" height="43.01"/>
  <rect class="cls-4" x="129.02" y="43.01" width="43.01" height="43.01"/>
  <rect class="cls-4" x="301.06" y="43.01" width="43.01" height="43.01"/>
  <rect class="cls-3" x="172.03" y="43.01" width="43.01" height="43.01"/>
  <rect class="cls-3" x="215.04" y="43.01" width="43.01" height="43.01"/>
  <rect class="cls-4" x="258.05" y="43.01" width="43.01" height="43.01"/>
  <rect class="cls-2" y="86.02" width="43.01" height="43.01"/>
  <rect class="cls-1" x="43.01" y="86.02" width="43.01" height="43.01"/>
  <rect class="cls-1" x="86.02" y="86.02" width="43.01" height="43.01"/>
  <rect class="cls-3" x="129.02" y="86.02" width="43.01" height="43.01"/>
  <rect class="cls-3" x="301.06" y="86.02" width="43.01" height="43.01"/>
  <rect class="cls-2" x="172.03" y="86.02" width="43.01" height="43.01"/>
  <rect class="cls-1" x="215.04" y="86.02" width="43.01" height="43.01"/>
  <rect class="cls-1" x="258.05" y="86.02" width="43.01" height="43.01"/>
  <rect class="cls-4" y="129.02" width="43.01" height="43.01"/>
  <rect class="cls-1" x="43.01" y="129.02" width="43.01" height="43.01"/>
  <rect class="cls-1" x="86.02" y="129.02" width="43.01" height="43.01"/>
  <rect class="cls-4" x="129.02" y="129.02" width="43.01" height="43.01"/>
  <rect class="cls-4" x="301.06" y="129.02" width="43.01" height="43.01"/>
  <rect class="cls-3" x="172.03" y="129.02" width="43.01" height="43.01"/>
  <rect class="cls-1" x="215.04" y="129.02" width="43.01" height="43.01"/>
  <rect class="cls-1" x="258.05" y="129.02" width="43.01" height="43.01"/>
  <rect class="cls-2" y="172.03" width="43.01" height="43.01"/>
  <rect class="cls-3" x="43.01" y="172.03" width="43.01" height="43.01"/>
  <rect class="cls-4" x="86.02" y="172.03" width="43.01" height="43.01"/>
  <rect class="cls-2" x="129.02" y="172.03" width="43.01" height="43.01"/>
  <rect class="cls-2" x="301.06" y="172.03" width="43.01" height="43.01"/>
  <rect class="cls-4" x="172.03" y="172.03" width="43.01" height="43.01"/>
  <rect class="cls-3" x="215.04" y="172.03" width="43.01" height="43.01"/>
  <rect class="cls-4" x="258.05" y="172.03" width="43.01" height="43.01"/>
  <rect class="cls-4" y="215.04" width="43.01" height="43.01"/>
  <rect class="cls-2" x="43.01" y="215.04" width="43.01" height="43.01"/>
  <rect class="cls-4" x="86.02" y="215.04" width="43.01" height="43.01"/>
  <rect class="cls-3" x="129.02" y="215.04" width="43.01" height="43.01"/>
  <rect class="cls-4" x="301.06" y="215.04" width="43.01" height="43.01"/>
  <rect class="cls-3" x="172.03" y="215.04" width="43.01" height="43.01"/>
  <rect class="cls-2" x="215.04" y="215.04" width="43.01" height="43.01"/>
  <rect class="cls-3" x="258.05" y="215.04" width="43.01" height="43.01"/>
  <rect class="cls-4" y="258.05" width="43.01" height="43.01"/>
  <rect class="cls-3" x="43.01" y="258.05" width="43.01" height="43.01"/>
  <rect class="cls-1" x="86.02" y="258.05" width="43.01" height="43.01"/>
  <rect class="cls-1" x="86.02" y="430.08" width="43.01" height="43.01"/>
  <rect class="cls-1" x="43.01" y="430.08" width="43.01" height="43.01"/>
  <rect class="cls-1" x="258.05" y="430.08" width="43.01" height="43.01"/>
  <rect class="cls-1" x="215.04" y="430.08" width="43.01" height="43.01"/>
  <rect class="cls-1" x="129.02" y="258.05" width="43.01" height="43.01"/>
  <rect class="cls-2" x="301.06" y="258.05" width="43.01" height="43.01"/>
  <rect class="cls-1" x="172.03" y="258.05" width="43.01" height="43.01"/>
  <rect class="cls-1" x="215.04" y="258.05" width="43.01" height="43.01"/>
  <rect class="cls-4" x="258.05" y="258.05" width="43.01" height="43.01"/>
  <rect class="cls-2" y="301.06" width="43.01" height="43.01"/>
  <rect class="cls-3" x="43.01" y="301.06" width="43.01" height="43.01"/>
  <rect class="cls-4" x="86.02" y="301.06" width="43.01" height="43.01"/>
  <rect class="cls-4" x="86.02" y="344.06" width="43.01" height="43.01"/>
  <rect class="cls-3" x="129.02" y="301.06" width="43.01" height="43.01"/>
  <rect class="cls-4" x="301.06" y="301.06" width="43.01" height="43.01"/>
  <rect class="cls-2" x="172.03" y="301.06" width="43.01" height="43.01"/>
  <rect class="cls-2" x="215.04" y="301.06" width="43.01" height="43.01"/>
  <rect class="cls-4" x="215.04" y="344.06" width="43.01" height="43.01"/>
  <rect class="cls-4" x="86.02" y="387.07" width="43.01" height="43.01"/>
  <rect class="cls-4" x="215.04" y="387.07" width="43.01" height="43.01"/>
  <rect class="cls-3" x="258.05" y="301.06" width="43.01" height="43.01"/>
</svg>