<?xml version="1.0" encoding="UTF-8"?>
<svg id="Layer_1" data-name="Layer 1" xmlns="http://www.w3.org/2000/svg" viewBox="0 0 457.01 478.04">
  <defs>
    <style>
      .cls-1 {
        stroke: #3a3a3a;
      }

      .cls-1, .cls-2 {
        stroke-width: 2.34px;
      }

      .cls-1, .cls-2, .cls-3, .cls-4, .cls-5 {
        fill: none;
        stroke-miterlimit: 10;
      }

      .cls-2 {
        stroke: #7a7a7a;
      }

      .cls-3 {
        stroke: #303030;
        stroke-linecap: round;
        stroke-width: 4.05px;
      }

      .cls-6, .cls-7, .cls-8, .cls-9, .cls-10, .cls-11, .cls-12, .cls-13, .cls-14, .cls-15, .cls-16, .cls-17 {
        stroke-width: 0px;
      }

      .cls-4 {
        stroke: #000;
        stroke-width: 6.85px;
      }

      .cls-7 {
        fill: #f8b133;
      }

      .cls-8 {
        fill: #7a7a7a;
      }

      .cls-9 {
        fill: #513320;
      }

      .cls-10 {
        fill: #282828;
      }

      .cls-11 {
        fill: #a3a3a3;
      }

      .cls-12 {
        fill: #07ebf3;
      }

      .cls-13 {
        fill: #ddd;
      }

      .cls-14 {
        fill: #303030;
      }

      .cls-15 {
        fill: #fecda2;
      }

      .cls-16 {
        fill: #fff;
      }

      .cls-17 {
        fill: #edbc9a;
      }

      .cls-5 {
        stroke: #fff;
        stroke-width: 5.52px;
      }
    </style>
  </defs>
  <path class="cls-10" d="M322.33,108.79c12.54,31.29-4.31,62.55-8.65,70.59-16.61,30.82-50.28,53.38-86.93,53.52-23.97.09-41.36-9.44-49.24-13.89-9.55-5.39-50.84-28.69-53.45-73.24-2.21-37.73,24.95-62.99,28.15-65.88,26.03-23.45,57.97-22,74.54-21.26,10.23.46,76.86,3.47,95.57,50.16Z"/>
  <path class="cls-12" d="M186.21,221.44l-13.41.48s-59.45-31.84-51.39-108.44l27.76-22.78s-19.03,14.44-19.36,34.46c-.33,20.02-.75,67.2,56.4,96.28Z"/>
  <path class="cls-12" d="M270.8,221.44h9.65s50.03-25.52,50.07-104.17c-7.63-9.34-15.26-18.68-22.89-28.02,5.42,9.44,12.58,25.34,12.8,45.56.56,51.76-44.93,83.45-49.64,86.62Z"/>
  <polygon class="cls-17" points="186.21 221.44 196.49 218.59 201.34 202.12 255.12 202.12 261.42 216.65 270.8 221.44 270.8 239.91 228.47 251.06 194.55 249.12 180.01 230.22 186.21 221.44"/>
  <path class="cls-12" d="M228.5,477.51s-188.41,2.26-208.67-2.57c-20.26-4.82-23.16-32.81-16.89-47.28,31.89-73.58,57.9-141.33,93.91-173.84,29.06-26.23,46.66-30.26,56.6-31.13,0,0,2.08-.18,32.75-1.26h0s14.85,21.53,42.29,21.53v234.55Z"/>
  <path class="cls-12" d="M228.5,477.51s188.41,2.26,208.67-2.57c20.26-4.82,23.16-32.81,16.89-47.28-31.89-73.58-57.9-141.33-93.91-173.84-29.06-26.23-46.66-30.26-56.6-31.13,0,0-2.08-.18-32.75-1.26h0s-14.85,21.53-42.29,21.53v234.55Z"/>
  <ellipse class="cls-15" cx="228.5" cy="129.69" rx="65.93" ry="83.9"/>
  <path class="cls-9" d="M160.79,127.25l-11.29-27.31v-48.79l38.23,4.73c2.76,2.75,6.98,7.92,7.49,14.86.89,11.97-9.52,24.83-26.23,29.58-.78,3.18-1.76,7.93-2.25,13.78-.71,8.6.17,15.63-2.09,15.48-2.96-.2-3.87-2.34-3.87-2.34Z"/>
  <path class="cls-5" d="M235.67,188.44s37.12.52,63.98-70.41"/>
  <path class="cls-9" d="M215.09,77.68s13.45,13.45,16.44,20.18c0,0-4.24-14.45-9.97-21.42l-6.48,1.25Z"/>
  <path class="cls-9" d="M226.89,77.68s18.44,16.44,19.93,21.42c0,0-.75-22.17-3.99-28.15l-15.94,6.73Z"/>
  <path class="cls-9" d="M252.02,62.19c4.48,5.54,8.97,11.08,13.45,16.63,4.42,6.47,8.59,11.14,11.51,14.16,7.55,7.79,12.65,10.61,14.68,17.98.64,2.33.81,4.52,1.14,8.89.42,5.45.28,10.01.06,13.21,0,0,21.86-29.31,3.84-68.48l-44.69-2.4Z"/>
  <path class="cls-15" d="M292.83,148.85c.46.15,1.14.34,1.97.44,5.69.73,10.46-3.32,13.29-5.79.98-.85,11.92-10.68,12.07-24.34.07-6.22-2.13-10.3-2.61-11.14-1.15-2.04-2.27-3.08-2.92-3.62-1.87-1.53-4.26-2.49-5.7-2.52-6.8-.16-12.47,19.57-13.14,21.97-1.57,5.6-3.3,14.12-2.96,24.99Z"/>
  <path class="cls-15" d="M167.2,148.85c-.46.15-1.14.34-1.97.44-5.69.73-10.46-3.32-13.29-5.79-.98-.85-11.92-10.68-12.07-24.34-.07-6.22,2.13-10.3,2.61-11.14,1.15-2.04,2.27-3.08,2.92-3.62,1.87-1.53,4.26-2.49,5.7-2.52,6.8-.16,12.47,19.57,13.14,21.97,1.57,5.6,3.3,14.12,2.96,24.99Z"/>
  <path class="cls-12" d="M121.42,113.48s6.89-4.82,18.26-12.4,27.21-17.57,73.03-19.29c45.82-1.72,71.65-2.76,93.35,13.78,21.7,16.54,24.46,21.7,24.46,21.7,0,0-8.96-89.22-84.74-113.34-75.79-24.11-120.22,68.9-124.36,109.55Z"/>
  <path class="cls-11" d="M387.2,453.62H72.89l-16.43-180.83c-.59-6.54,4.55-12.18,11.12-12.18h327.9c6.64,0,11.81,5.76,11.1,12.36l-19.38,180.65Z"/>
  <path class="cls-13" d="M387.2,460H72.89l-16.43-180.83c-.59-6.54,4.55-12.18,11.12-12.18h327.9c6.64,0,11.81,5.76,11.1,12.36l-19.38,180.65Z"/>
  <rect class="cls-11" x="66.84" y="451.14" width="328.15" height="26.45" rx="6.35" ry="6.35"/>
  <rect class="cls-1" x="237.46" y="346.06" width="23.93" height="10.92" rx="2.76" ry="2.76"/>
  <g>
    <rect class="cls-4" x="213.95" y="338.68" width="29.28" height="50.53" rx="10.19" ry="10.19"/>
    <rect class="cls-7" x="201.88" y="363.94" width="53.42" height="48.92" rx="7.5" ry="7.5"/>
    <rect class="cls-6" x="226.51" y="389.23" width="4.15" height="10.82"/>
    <circle class="cls-6" cx="228.59" cy="384.76" r="8"/>
  </g>
  <rect class="cls-1" x="98.75" y="333.24" width="23.93" height="10.92" rx="2.76" ry="2.76" transform="translate(83.79 -16.62) rotate(13.77)"/>
  <rect class="cls-1" x="131" y="340.6" width="23.93" height="10.92" rx="2.76" ry="2.76" transform="translate(70.25 -21.24) rotate(11.25)"/>
  <rect class="cls-1" x="165.66" y="345.28" width="23.93" height="10.92" rx="2.76" ry="2.76" transform="translate(27.5 -12.62) rotate(4.41)"/>
  <rect class="cls-1" x="202.02" y="346.06" width="23.93" height="10.92" rx="2.76" ry="2.76"/>
  <rect class="cls-1" x="65.48" y="323.35" width="23.93" height="10.92" rx="2.76" ry="2.76" transform="translate(95.29 -8.53) rotate(16.28)"/>
  <line class="cls-2" x1="84.86" y1="330.98" x2="101.85" y2="335.92"/>
  <line class="cls-2" x1="117.92" y1="340.86" x2="135.28" y2="344.32"/>
  <line class="cls-2" x1="186.36" y1="351.17" x2="204.04" y2="351.86"/>
  <line class="cls-2" x1="150.77" y1="348.02" x2="168.27" y2="350.65"/>
  <rect class="cls-1" x="338.95" y="333.06" width="23.93" height="10.92" rx="2.76" ry="2.76" transform="translate(772.31 583.79) rotate(166.23)"/>
  <rect class="cls-1" x="306.7" y="340.41" width="23.93" height="10.92" rx="2.76" ry="2.76" transform="translate(698.69 622.94) rotate(168.75)"/>
  <rect class="cls-1" x="272.04" y="345.09" width="23.93" height="10.92" rx="2.76" ry="2.76" transform="translate(594.14 678.22) rotate(175.59)"/>
  <rect class="cls-1" x="372.22" y="323.16" width="23.93" height="10.92" rx="2.76" ry="2.76" transform="translate(845.09 536.36) rotate(163.72)"/>
  <line class="cls-2" x1="376.77" y1="330.79" x2="359.78" y2="335.74"/>
  <line class="cls-2" x1="343.71" y1="340.68" x2="326.36" y2="344.13"/>
  <line class="cls-2" x1="275.27" y1="350.99" x2="257.59" y2="351.67"/>
  <line class="cls-2" x1="310.86" y1="347.84" x2="293.36" y2="350.47"/>
  <line class="cls-2" x1="222.86" y1="351.51" x2="239.8" y2="351.51"/>
  <g>
    <g>
      <path class="cls-14" d="M229.97,108.81h71.5s-9.9,27.91-37.14,28.07c-27.24.16-25.84-15.09-34.36-15.09v-12.98Z"/>
      <path class="cls-14" d="M229.97,108.81h-71.5s9.9,27.91,37.14,28.07c27.24.16,25.84-15.09,34.36-15.09v-12.98Z"/>
    </g>
    <path class="cls-16" d="M214.32,124.25c-5.6,6.31-14.15,7.97-20.57,4.38-7.11-3.99-8.25-12.56-8.36-13.43,4.1.43,9.02,1.28,14.46,2.95,5.8,1.78,10.64,4.02,14.46,6.11Z"/>
    <path class="cls-16" d="M248.26,124.25c5.6,6.31,14.15,7.97,20.57,4.38,7.11-3.99,8.25-12.56,8.36-13.43-4.1.43-9.02,1.28-14.46,2.95-5.8,1.78-10.64,4.02-14.46,6.11Z"/>
  </g>
  <path class="cls-3" d="M230.74,189.43s-18.39,3.47-26.61-12.44"/>
  <ellipse class="cls-6" cx="235.67" cy="188.44" rx="8.49" ry="6.77"/>
  <polygon class="cls-8" points="401.71 324.73 392.81 327.37 392.15 325.11 401.98 322.25 401.71 324.73"/>
  <polygon class="cls-8" points="60.64 325.17 68.66 327.55 69.31 325.29 60.42 322.71 60.64 325.17"/>
</svg>